<svg width="87" height="19" viewBox="0 0 87 19" fill="none" xmlns="http://www.w3.org/2000/svg">
<path d="M0.584 3.024C2.2 1.92 4.008 1.368 6.008 1.368C7.72 1.368 9.104 1.768 10.16 2.568C11.216 3.352 11.744 4.48 11.744 5.952C11.744 7.184 11.336 8.24 10.52 9.12C9.72 9.984 8.624 10.832 7.232 11.664C7.12 11.728 6.912 11.848 6.608 12.024C6.32 12.2 6.112 12.328 5.984 12.408C5.872 12.472 5.688 12.584 5.432 12.744C5.176 12.904 4.984 13.024 4.856 13.104C4.744 13.184 4.584 13.304 4.376 13.464C4.184 13.608 4.04 13.736 3.944 13.848C3.848 13.944 3.736 14.072 3.608 14.232C3.48 14.376 3.384 14.512 3.32 14.64C3.272 14.768 3.224 14.912 3.176 15.072C3.128 15.232 3.104 15.392 3.104 15.552L11.864 15.528V18H0.032V16.752C0.032 15.856 0.152 15.064 0.392 14.376C0.648 13.672 1.088 13.032 1.712 12.456C2.352 11.864 2.848 11.448 3.2 11.208C3.552 10.952 4.176 10.56 5.072 10.032C5.152 9.968 5.216 9.92 5.264 9.888C5.328 9.856 5.392 9.824 5.456 9.792C6.8 9.008 7.664 8.44 8.048 8.088C8.688 7.464 9.008 6.768 9.008 6C9.008 5.296 8.72 4.76 8.144 4.392C7.584 4.024 6.792 3.84 5.768 3.84C3.992 3.84 2.264 4.448 0.584 5.664V3.024ZM20.3909 5.736C20.3909 4.552 20.9109 3.528 21.9509 2.664C22.9909 1.8 24.5109 1.368 26.5109 1.368C28.3829 1.368 29.8709 1.816 30.9749 2.712C32.0949 3.608 32.6709 4.672 32.7029 5.904C32.7349 7.504 32.0149 8.824 30.5429 9.864C32.3669 10.776 33.2789 12.064 33.2789 13.728C33.2789 15.008 32.7189 16.096 31.5989 16.992C30.4789 17.872 28.8149 18.312 26.6069 18.312C24.4149 18.312 22.7349 17.848 21.5669 16.92C20.3989 15.976 19.8149 14.832 19.8149 13.488C19.8149 12.688 20.0469 11.904 20.5109 11.136C20.9749 10.368 21.6309 9.728 22.4789 9.216C21.0869 8.32 20.3909 7.16 20.3909 5.736ZM26.7989 10.944C25.7429 10.624 24.9589 10.368 24.4469 10.176C23.8229 10.56 23.3429 11.024 23.0069 11.568C22.6869 12.096 22.5269 12.632 22.5269 13.176C22.5429 14.04 22.9029 14.728 23.6069 15.24C24.3269 15.736 25.3669 15.984 26.7269 15.984C27.8309 15.984 28.7349 15.784 29.4389 15.384C30.1589 14.984 30.5189 14.464 30.5189 13.824C30.5189 13.488 30.4549 13.192 30.3269 12.936C30.1989 12.664 30.0309 12.44 29.8229 12.264C29.6309 12.088 29.3749 11.92 29.0549 11.76C28.7349 11.6 28.4229 11.472 28.1189 11.376C27.8149 11.264 27.4549 11.144 27.0389 11.016C27.0069 11 26.9749 10.992 26.9429 10.992C26.9269 10.992 26.9029 10.984 26.8709 10.968C26.8549 10.952 26.8309 10.944 26.7989 10.944ZM30.0149 6.24C30.0149 5.504 29.6949 4.896 29.0549 4.416C28.4149 3.936 27.5269 3.696 26.3909 3.696C25.3669 3.696 24.5509 3.888 23.9429 4.272C23.3509 4.656 23.0549 5.136 23.0549 5.712C23.0549 6.256 23.2389 6.72 23.6069 7.104C23.9909 7.488 24.3589 7.752 24.7109 7.896C25.0629 8.04 25.6229 8.232 26.3909 8.472C26.5189 8.52 26.6149 8.552 26.6789 8.568C27.3509 8.744 27.9349 8.912 28.4309 9.072C29.4869 8.256 30.0149 7.312 30.0149 6.24ZM37.3906 15.984C36.1586 14.416 35.5426 12.368 35.5426 9.84C35.5426 7.312 36.1586 5.272 37.3906 3.72C38.6226 2.152 40.4466 1.368 42.8626 1.368C45.2786 1.368 47.1026 2.152 48.3346 3.72C49.5666 5.272 50.1826 7.312 50.1826 9.84C50.1826 12.368 49.5666 14.416 48.3346 15.984C47.1026 17.536 45.2786 18.312 42.8626 18.312C40.4466 18.312 38.6226 17.536 37.3906 15.984ZM42.8626 15.816C45.9026 15.816 47.4226 13.824 47.4226 9.84C47.4226 5.856 45.9026 3.864 42.8626 3.864C39.8226 3.864 38.3026 5.856 38.3026 9.84C38.3026 13.824 39.8226 15.816 42.8626 15.816ZM54.3359 15.984C53.1039 14.416 52.4879 12.368 52.4879 9.84C52.4879 7.312 53.1039 5.272 54.3359 3.72C55.5679 2.152 57.3919 1.368 59.8079 1.368C62.2239 1.368 64.0479 2.152 65.2799 3.72C66.5119 5.272 67.1279 7.312 67.1279 9.84C67.1279 12.368 66.5119 14.416 65.2799 15.984C64.0479 17.536 62.2239 18.312 59.8079 18.312C57.3919 18.312 55.5679 17.536 54.3359 15.984ZM59.8079 15.816C62.8479 15.816 64.3679 13.824 64.3679 9.84C64.3679 5.856 62.8479 3.864 59.8079 3.864C56.7679 3.864 55.2479 5.856 55.2479 9.84C55.2479 13.824 56.7679 15.816 59.8079 15.816ZM76.2811 18V0.863999H80.7931C82.8891 0.863999 84.4411 1.288 85.4491 2.136C86.4731 2.984 86.9851 4.216 86.9851 5.832C86.9851 6.92 86.7371 7.856 86.2411 8.64C85.7451 9.408 85.0091 10 84.0331 10.416C83.0731 10.832 81.8811 11.04 80.4571 11.04H78.4411V18H76.2811ZM74.1931 14.736V13.176H82.4011V14.736H74.1931ZM74.1931 11.04V9.216H79.6891V11.04H74.1931ZM80.1451 9.216C81.1211 9.216 81.9451 9.112 82.6171 8.904C83.3051 8.696 83.8331 8.352 84.2011 7.872C84.5691 7.392 84.7531 6.736 84.7531 5.904C84.7531 4.816 84.4171 4.008 83.7451 3.48C83.0731 2.952 82.0251 2.688 80.6011 2.688H78.4411V9.216H80.1451Z" fill="white"/>
</svg>
