<svg width="13" height="12" viewBox="0 0 13 12" fill="none" xmlns="http://www.w3.org/2000/svg">
<path d="M6.11836 1.68979L6.5 2.14068L6.88164 1.68979C7.49874 0.960719 8.44653 0.5 9.425 0.5C11.148 0.5 12.5 1.85584 12.5 3.59673C12.5 4.66944 12.025 5.68133 11.0886 6.83309C10.1464 7.99202 8.78928 9.2313 7.10551 10.7674L7.1048 10.7681L6.49872 11.3232L5.89488 10.7743C5.89476 10.7742 5.89463 10.7741 5.89451 10.774C4.2108 9.23462 2.85375 7.99382 1.91151 6.83404C0.975032 5.68136 0.5 4.66945 0.5 3.59673C0.5 1.85584 1.85199 0.5 3.575 0.5C4.55347 0.5 5.50126 0.960719 6.11836 1.68979ZM2.3264 6.85857C3.24684 7.94062 4.55481 9.13251 6.08914 10.5302L6.14538 10.5868L6.5 10.9436L6.85462 10.5868L6.91088 10.5302C8.4452 9.1325 9.75316 7.94062 10.6736 6.85857C11.5912 5.77981 12.2 4.72518 12.2 3.59673C12.2 2.01555 11.004 0.807902 9.425 0.807902C8.3509 0.807902 7.29625 1.42474 6.79166 2.35123H6.21307C5.70435 1.42592 4.65057 0.807902 3.575 0.807902C1.99601 0.807902 0.8 2.01555 0.8 3.59673C0.8 4.72518 1.40876 5.77981 2.3264 6.85857Z" fill="white" stroke="#A1A6B4"/>
</svg>
